<?xml version="1.0" encoding="UTF-8"?>
<!DOCTYPE svg PUBLIC "-//W3C//DTD SVG 1.1//EN" "http://www.w3.org/Graphics/SVG/1.1/DTD/svg11.dtd">
<!-- Creator: CorelDRAW 2017 -->
<svg xmlns="http://www.w3.org/2000/svg" xml:space="preserve" width="120mm" height="120mm" version="1.1" style="shape-rendering:geometricPrecision; text-rendering:geometricPrecision; image-rendering:optimizeQuality; fill-rule:evenodd; clip-rule:evenodd"
viewBox="0 0 12000 12000"
 xmlns:xlink="http://www.w3.org/1999/xlink">
 <defs>
  <style type="text/css">
   <![CDATA[
    .str1 {stroke:#373435;stroke-width:20}
    .str0 {stroke:#373435;stroke-width:200;stroke-linecap:round}
    .fil0 {fill:none}
    .fil1 {fill:#373435}
    .fil3 {fill:#231F20}
    .fil2 {fill:#86D8F0}
    .fil4 {fill:#373435;fill-rule:nonzero}
    .fil5 {fill:#86D8F0;fill-rule:nonzero}
   ]]>
  </style>
 </defs>
 <g id="Capa_x0020_1">
  <metadata id="CorelCorpID_0Corel-Layer"/>
  <g id="_2959477871920">
   <path class="fil0 str0" d="M6295 8608c2689,1449 3697,-1299 2178,-3177 -310,-365 -1679,-1948 -2849,-2062 -1758,21 -4655,2639 -3163,5035 125,201 496,545 976,698 1222,254 1980,-478 1935,-1078 -37,-492 -499,-961 -1159,-1162 -1236,-159 -1692,-1543 -758,-1693l1199 -88c622,-46 822,-395 1182,-463 200,-38 946,-128 1549,673 267,355 372,1262 -176,1939 -671,827 -1285,681 -1493,282 -217,-416 -195,-952 720,-1267"/>
   <path class="fil1 str1" d="M2980 5547c79,373 675,-96 417,-367l-417 367z"/>
   <path class="fil1 str1" d="M5470 5404c33,-28 298,-112 345,-49 63,84 66,199 44,334 -79,-96 -130,-220 -389,-286z"/>
   <g>
    <path class="fil2" d="M1705 2298c367,-245 1048,57 1328,606 281,549 239,1052 -132,1266 -940,542 -2028,-1317 -1197,-1872z"/>
    <path class="fil3" d="M2091 2366c295,-117 727,111 980,607 118,230 169,498 139,713 -35,248 -171,430 -329,493 -295,117 -704,-189 -958,-684 -253,-495 -127,-1012 168,-1129z"/>
   </g>
   <g>
    <path class="fil2" d="M3861 835c402,-182 1025,226 1213,813 188,587 66,1077 -335,1228 -1016,383 -1788,-1628 -878,-2041z"/>
    <path class="fil3" d="M4230 965c310,-68 699,228 869,757 79,246 86,519 21,726 -74,239 -238,397 -404,434 -310,68 -665,-300 -835,-830 -170,-530 39,-1019 349,-1087z"/>
   </g>
   <g>
    <path class="fil2" d="M7015 713c430,98 679,800 473,1381 -205,581 -599,897 -1010,775 -1040,-310 -438,-2378 537,-2156z"/>
    <path class="fil3" d="M7231 1040c288,134 419,604 233,1129 -86,243 -246,465 -422,591 -204,145 -430,172 -584,100 -288,-134 -347,-641 -162,-1166 185,-524 647,-788 936,-654z"/>
   </g>
   <g>
    <path class="fil2" d="M9373 2157c377,228 393,973 15,1460 -378,487 -851,663 -1202,418 -890,-621 332,-2395 1187,-1878z"/>
    <path class="fil3" d="M9474 2535c232,217 207,705 -133,1145 -158,204 -379,364 -587,428 -239,74 -462,28 -586,-88 -232,-217 -128,-718 213,-1157 341,-440 862,-544 1094,-327z"/>
   </g>
   <polygon class="fil4" points="1485,11274 511,11274 511,9813 879,9813 879,10995 1485,10995 "/>
   <path id="1" class="fil4" d="M1984 11274l-344 0 0 -1101 344 0 0 1101zm10 -1258l-364 0 0 -267 364 0 0 267z"/>
   <path id="2" class="fil4" d="M2671 11296c-140,0 -242,-29 -306,-86 -64,-58 -96,-152 -96,-283l0 -515 -131 0 0 -239 131 0 0 -315 344 0 0 315 332 0 0 239 -332 0 0 391c0,39 0,73 1,101 1,29 6,55 16,78 9,23 25,41 49,55 23,13 57,20 102,20 18,0 43,-4 72,-12 30,-8 51,-15 63,-22l29 0 0 242c-37,10 -77,18 -119,23 -42,6 -93,8 -154,8z"/>
   <path id="3" class="fil4" d="M3506 11296c-140,0 -242,-29 -306,-86 -64,-58 -96,-152 -96,-283l0 -515 -131 0 0 -239 131 0 0 -315 344 0 0 315 332 0 0 239 -332 0 0 391c0,39 0,73 1,101 1,29 6,55 16,78 9,23 25,41 49,55 23,13 57,20 102,20 18,0 43,-4 72,-12 30,-8 51,-15 63,-22l29 0 0 242c-37,10 -77,18 -119,23 -42,6 -93,8 -154,8z"/>
   <polygon id="4" class="fil4" points="4261,11274 3917,11274 3917,9747 4261,9747 "/>
   <path id="5" class="fil4" d="M5089 11304c-208,0 -368,-50 -479,-149 -111,-99 -166,-241 -166,-425 0,-180 52,-323 155,-431 103,-107 249,-161 434,-161 169,0 296,46 381,137 85,91 128,221 128,391l0 124 -756 0c3,51 14,94 32,128 18,34 43,62 73,82 29,20 64,35 103,44 40,9 82,13 129,13 40,0 79,-4 118,-13 39,-9 74,-21 107,-36 28,-13 54,-26 78,-41 24,-15 44,-27 59,-39l37 0 0 284c-28,11 -54,21 -77,31 -23,10 -55,19 -96,29 -38,10 -76,17 -116,23 -40,6 -88,8 -145,8zm116 -721c-2,-73 -19,-129 -51,-167 -32,-39 -81,-58 -147,-58 -68,0 -120,20 -158,61 -38,40 -59,95 -63,164l419 0z"/>
   <path id="6" class="fil5" d="M7451 10274c0,68 -11,133 -32,194 -21,61 -53,113 -93,154 -25,25 -52,49 -82,71 -30,21 -63,40 -98,55 -36,15 -75,27 -117,35 -42,8 -89,13 -142,13l-192 0 0 478 -368 0 0 -1461 568 0c84,0 157,8 218,23 61,15 117,40 166,73 55,37 97,85 128,147 30,61 45,134 45,218zm-378 9c0,-41 -10,-76 -29,-106 -19,-29 -43,-50 -70,-61 -34,-15 -68,-24 -99,-26 -31,-2 -74,-3 -129,-3l-52 0 0 436 25 0c35,0 67,0 98,-1 31,-1 58,-3 80,-7 19,-3 40,-10 62,-19 22,-10 39,-20 50,-32 25,-24 42,-49 51,-75 9,-26 13,-61 13,-106z"/>
   <path id="7" class="fil5" d="M8233 10986l0 -231c-58,6 -104,11 -140,15 -36,4 -71,12 -105,25 -30,10 -53,26 -70,48 -16,21 -25,50 -25,85 0,52 14,87 41,107 28,19 68,29 122,29 30,0 60,-7 91,-21 31,-14 59,-33 85,-58zm0 171c-23,20 -45,38 -63,53 -19,15 -44,31 -75,47 -30,15 -60,27 -89,35 -29,8 -69,12 -122,12 -97,0 -178,-33 -242,-98 -64,-66 -96,-148 -96,-248 0,-82 16,-148 49,-199 32,-51 79,-91 141,-120 62,-30 136,-51 222,-63 86,-12 179,-21 278,-27l0 -6c0,-61 -22,-103 -67,-126 -45,-23 -112,-35 -201,-35 -41,0 -88,7 -142,22 -54,15 -107,33 -158,56l-29 0 0 -267c34,-10 89,-21 165,-35 76,-13 152,-20 229,-20 190,0 328,31 414,95 87,63 130,160 130,290l0 751 -344 0 0 -117z"/>
   <polygon id="8" class="fil5" points="10473,10173 10151,11274 9786,11274 9592,10562 9397,11274 9032,11274 8713,10173 9075,10173 9243,10901 9453,10173 9756,10173 9953,10901 10119,10173 "/>
   <path id="9" class="fil5" d="M10954 11304c-81,0 -158,-9 -230,-26 -72,-17 -132,-38 -179,-62l0 -290 28 0c16,12 35,26 56,41 21,15 50,30 87,47 32,15 68,28 109,39 40,11 84,16 131,16 49,0 91,-7 128,-22 37,-15 56,-39 56,-72 0,-25 -8,-45 -25,-58 -17,-13 -50,-25 -99,-37 -26,-7 -59,-14 -99,-21 -40,-8 -75,-16 -106,-26 -86,-27 -152,-66 -195,-119 -44,-53 -65,-122 -65,-207 0,-49 11,-95 34,-139 23,-44 56,-82 100,-116 44,-33 98,-60 163,-79 64,-20 137,-29 218,-29 77,0 148,8 213,23 65,15 120,34 164,56l0 279 -27 0c-12,-9 -30,-21 -56,-37 -26,-15 -51,-29 -75,-40 -29,-13 -61,-24 -97,-33 -36,-8 -72,-13 -110,-13 -50,0 -92,8 -126,25 -35,17 -52,40 -52,68 0,25 8,45 25,59 17,14 54,28 111,42 29,7 63,14 102,21 38,7 75,16 111,28 79,25 139,63 181,112 41,50 61,115 61,197 0,52 -12,101 -36,147 -24,47 -59,86 -103,118 -47,35 -103,62 -166,80 -64,19 -140,28 -229,28z"/>
  </g>
 </g>
</svg>
