<?xml version="1.0" encoding="UTF-8"?>
<!DOCTYPE svg PUBLIC "-//W3C//DTD SVG 1.1//EN" "http://www.w3.org/Graphics/SVG/1.1/DTD/svg11.dtd">
<!-- Creator: CorelDRAW 2017 -->
<svg xmlns="http://www.w3.org/2000/svg" xml:space="preserve" width="150mm" height="150mm" version="1.1" style="shape-rendering:geometricPrecision; text-rendering:geometricPrecision; image-rendering:optimizeQuality; fill-rule:evenodd; clip-rule:evenodd"
viewBox="0 0 15000 15000"
 xmlns:xlink="http://www.w3.org/1999/xlink">
 <defs>
  <style type="text/css">
   <![CDATA[
    .str2 {stroke:#282829;stroke-width:75}
    .str3 {stroke:#FEFEFE;stroke-width:20}
    .str0 {stroke:#282829;stroke-width:20}
    .str1 {stroke:#282829;stroke-width:75;stroke-linecap:round}
    .fil2 {fill:none}
    .fil0 {fill:#FEFEFE}
    .fil1 {fill:#282829}
   ]]>
  </style>
 </defs>
 <g id="Capa_x0020_1">
  <metadata id="CorelCorpID_0Corel-Layer"/>
  <path class="fil0" d="M7755 7711c3066,42 4959,4778 4893,5406 46,518 -254,1372 -1749,1303 -880,-181 -1885,-793 -2701,-852 -919,-66 -1694,453 -3607,826 -796,26 -1459,-436 -1488,-1236 -60,-1646 1589,-5237 4652,-5448z"/>
  <path class="fil1 str0" d="M11068 14424l-170 -4c-434,-100 -848,-247 -1250,-422 -5,-110 -70,-265 -187,-330 -99,-55 -240,-168 -227,-338 16,-204 115,-504 47,-611 -100,-101 -430,193 -610,306 -141,73 -546,205 -743,82 -39,-74 278,-252 395,-539 31,-62 76,102 116,92 121,-315 582,-493 580,-671 -5,-42 -151,-67 -452,39 -432,-7 -841,-194 -947,-825 -35,-489 588,-916 830,-1430 -2,345 -539,804 -685,1354 -29,196 150,475 305,603 148,100 343,135 520,115 38,-54 -101,-69 -69,-134 71,-80 311,17 467,-71 393,-467 495,-1040 91,-1800 -639,-810 -1371,-1100 -2161,-1071 -481,8 -843,195 -1048,622 -107,208 639,305 -320,623 33,115 -17,305 101,388l-187 212c29,175 252,423 604,507 379,17 547,146 741,286l-193 1c96,611 -420,1310 -560,2087 -28,204 27,356 90,513l-213 63c-259,-713 102,-1381 362,-2033 -305,-106 -547,-290 -459,-741 -420,-266 -704,-371 -779,-919 -22,-164 37,-402 8,-636 -52,-61 -30,-193 -7,-238 66,-184 251,-236 523,-227 325,-326 577,-762 1337,-727 446,-51 1020,109 1702,446 420,262 842,896 909,1227 62,471 82,1135 -232,1648 -10,91 40,235 119,329 598,679 1143,1342 1652,2225z"/>
  <path class="fil2 str1" d="M6644 9528c0,0 424,-372 587,168"/>
  <path class="fil2 str1" d="M6838 10649c0,0 283,-42 367,220"/>
  <path class="fil0" d="M5308 9904c83,5 92,89 127,155 -19,203 82,285 124,427l-175 134c-114,-385 -163,-259 -75,-717z"/>
  <path class="fil2 str2" d="M5366 10759c0,0 115,-335 304,-309 189,26 547,503 953,466 406,-37 398,-157 434,-204"/>
  <path class="fil0" d="M6065 11303c211,-20 270,45 387,163 25,82 53,220 -19,352 -118,22 -259,-28 -346,-151 -86,-144 -56,-312 -22,-365z"/>
  <path class="fil2 str3" d="M10786 14393c0,0 -1147,-1714 -1270,-1723"/>
  <ellipse class="fil0" transform="matrix(2.683 -0.645518 0.645518 2.683 5229.97 3230.98)" rx="643" ry="960"/>
  <ellipse class="fil0" transform="matrix(2.72073 0.461297 -0.461297 2.72073 9881.8 3205.84)" rx="643" ry="960"/>
  <ellipse class="fil0" transform="matrix(2.55176 1.05057 -1.05057 2.55176 13000.4 6957.96)" rx="643" ry="960"/>
  <ellipse class="fil0" transform="matrix(2.32938 -1.47959 1.47959 2.32938 2137.77 7222.01)" rx="643" ry="960"/>
 </g>
</svg>
