<?xml version="1.0" encoding="UTF-8"?>
<!DOCTYPE svg PUBLIC "-//W3C//DTD SVG 1.1//EN" "http://www.w3.org/Graphics/SVG/1.1/DTD/svg11.dtd">
<!-- Creator: CorelDRAW 2017 -->
<svg xmlns="http://www.w3.org/2000/svg" xml:space="preserve" width="150mm" height="150mm" version="1.1" style="shape-rendering:geometricPrecision; text-rendering:geometricPrecision; image-rendering:optimizeQuality; fill-rule:evenodd; clip-rule:evenodd"
viewBox="0 0 15000 15000"
 xmlns:xlink="http://www.w3.org/1999/xlink">
 <defs>
  <style type="text/css">
   <![CDATA[
    .str3 {stroke:#FEFEFE;stroke-width:75}
    .str1 {stroke:#FEFEFE;stroke-width:20}
    .str0 {stroke:#373435;stroke-width:20}
    .str4 {stroke:black;stroke-width:20}
    .str2 {stroke:#FEFEFE;stroke-width:75;stroke-linecap:round}
    .fil2 {fill:none}
    .fil1 {fill:#FEFEFE}
    .fil3 {fill:black}
    .fil0 {fill:#030303}
    .fil4 {fill:#373435;fill-rule:nonzero}
    .fil5 {fill:#86D8F0;fill-rule:nonzero}
   ]]>
  </style>
 </defs>
 <g id="Capa_x0020_1">
  <metadata id="CorelCorpID_0Corel-Layer"/>
  <g id="_1430476428928">
   <path class="fil0 str0" d="M7322 5508c1690,23 2733,2633 2696,2979 25,286 -140,756 -964,718 -485,-100 -1039,-437 -1489,-469 -506,-36 -933,250 -1988,455 -439,14 -804,-240 -820,-681 -33,-907 875,-2886 2564,-3002z"/>
   <path class="fil1 str1" d="M9148 9208l-93 -2c-239,-55 -467,-136 -689,-233 -3,-61 -38,-146 -103,-182 -55,-30 -132,-92 -125,-186 9,-112 63,-278 26,-337 -55,-56 -237,106 -336,169 -78,40 -301,113 -409,45 -22,-41 153,-139 218,-297 17,-34 42,56 64,51 67,-173 321,-272 320,-370 -3,-23 -83,-37 -249,22 -238,-4 -463,-107 -522,-454 -19,-270 324,-505 457,-788 -1,190 -297,443 -378,746 -16,108 83,262 168,333 82,55 189,74 286,64 21,-30 -56,-38 -38,-74 39,-44 171,9 257,-39 216,-257 273,-573 50,-992 -352,-446 -756,-606 -1191,-590 -265,4 -465,107 -577,343 -59,114 352,168 -176,343 18,63 -9,168 56,214l-103 117c16,97 139,233 333,279 209,9 302,81 408,157l-106 1c53,337 -232,722 -308,1150 -16,113 15,196 50,283l-118 34c-143,-393 56,-761 199,-1120 -168,-58 -302,-160 -253,-409 -231,-147 -388,-204 -429,-506 -12,-90 20,-222 5,-351 -29,-34 -16,-106 -4,-131 36,-102 139,-130 288,-125 179,-180 318,-420 737,-400 246,-28 562,60 938,246 232,145 464,494 501,676 34,260 45,625 -128,908 -6,50 22,129 65,181 329,374 630,740 910,1226z"/>
   <path class="fil2 str2" d="M6710 6510c0,0 234,-205 323,92"/>
   <path class="fil2 str2" d="M6817 7127c0,0 156,-23 202,121"/>
   <path class="fil3" d="M5974 6717c46,3 51,49 70,86 -10,112 45,157 68,235l-97 74c-63,-212 -90,-143 -42,-395z"/>
   <path class="fil2 str3" d="M6006 7188c0,0 64,-185 167,-170 104,14 302,277 525,257 224,-20 199,-61 219,-87"/>
   <path class="fil0" d="M6391 7488c116,-11 149,25 213,90 14,45 29,121 -10,194 -65,12 -143,-16 -191,-83 -47,-79 -31,-172 -12,-201z"/>
   <path class="fil2 str0" d="M8993 9191c0,0 -632,-945 -700,-950"/>
   <ellipse class="fil3 str4" transform="matrix(1.47856 -0.355734 0.355734 1.47856 5930.86 3039.54)" rx="643" ry="960"/>
   <ellipse class="fil3 str4" transform="matrix(1.49935 0.254213 -0.254213 1.49935 8494.4 3025.69)" rx="643" ry="960"/>
   <ellipse class="fil3 str4" transform="matrix(1.40623 0.578953 -0.578953 1.40623 10213 5093.42)" rx="643" ry="960"/>
   <ellipse class="fil3 str4" transform="matrix(1.28368 -0.815375 0.815375 1.28368 4226.8 5238.94)" rx="643" ry="960"/>
  </g>
  <polygon class="fil4" points="2985,11106 2011,11106 2011,9645 2379,9645 2379,10827 2985,10827 "/>
  <path id="1" class="fil4" d="M3484 11106l-344 0 0 -1101 344 0 0 1101zm10 -1258l-364 0 0 -267 364 0 0 267z"/>
  <path id="2" class="fil4" d="M4171 11128c-140,0 -242,-29 -306,-86 -64,-58 -96,-152 -96,-283l0 -515 -131 0 0 -239 131 0 0 -315 344 0 0 315 332 0 0 239 -332 0 0 391c0,39 0,73 1,101 1,29 6,55 16,78 9,23 25,41 49,55 23,13 57,20 102,20 18,0 43,-4 72,-12 30,-8 51,-15 63,-22l29 0 0 242c-37,10 -77,18 -119,23 -42,6 -93,8 -154,8z"/>
  <path id="3" class="fil4" d="M5006 11128c-140,0 -242,-29 -306,-86 -64,-58 -96,-152 -96,-283l0 -515 -131 0 0 -239 131 0 0 -315 344 0 0 315 332 0 0 239 -332 0 0 391c0,39 0,73 1,101 1,29 6,55 16,78 9,23 25,41 49,55 23,13 57,20 102,20 18,0 43,-4 72,-12 30,-8 51,-15 63,-22l29 0 0 242c-37,10 -77,18 -119,23 -42,6 -93,8 -154,8z"/>
  <polygon id="4" class="fil4" points="5761,11106 5417,11106 5417,9579 5761,9579 "/>
  <path id="5" class="fil4" d="M6589 11136c-208,0 -368,-50 -479,-149 -111,-99 -166,-241 -166,-425 0,-180 52,-323 155,-431 103,-107 249,-161 434,-161 169,0 296,46 381,137 85,91 128,221 128,391l0 124 -756 0c3,51 14,94 32,128 18,34 43,62 73,82 29,20 64,35 103,44 40,9 82,13 129,13 40,0 79,-4 118,-13 39,-9 74,-21 107,-36 28,-13 54,-26 78,-41 24,-15 44,-27 59,-39l37 0 0 284c-28,11 -54,21 -77,31 -23,10 -55,19 -96,29 -38,10 -76,17 -116,23 -40,6 -88,8 -145,8zm116 -721c-2,-73 -19,-129 -51,-167 -32,-39 -81,-58 -147,-58 -68,0 -120,20 -158,61 -38,40 -59,95 -63,164l419 0z"/>
  <path id="6" class="fil5" d="M8951 10106c0,68 -11,133 -32,194 -21,61 -53,113 -93,154 -25,25 -52,49 -82,71 -30,21 -63,40 -98,55 -36,15 -75,27 -117,35 -42,8 -89,13 -142,13l-192 0 0 478 -368 0 0 -1461 568 0c84,0 157,8 218,23 61,15 117,40 166,73 55,37 97,85 128,147 30,61 45,134 45,218zm-378 9c0,-41 -10,-76 -29,-106 -19,-29 -43,-50 -70,-61 -34,-15 -68,-24 -99,-26 -31,-2 -74,-3 -129,-3l-52 0 0 436 25 0c35,0 67,0 98,-1 31,-1 58,-3 80,-7 19,-3 40,-10 62,-19 22,-10 39,-20 50,-32 25,-24 42,-49 51,-75 9,-26 13,-61 13,-106z"/>
  <path id="7" class="fil5" d="M9733 10818l0 -231c-58,6 -104,11 -140,15 -36,4 -71,12 -105,25 -30,10 -53,26 -70,48 -16,21 -25,50 -25,85 0,52 14,87 41,107 28,19 68,29 122,29 30,0 60,-7 91,-21 31,-14 59,-33 85,-58zm0 171c-23,20 -45,38 -63,53 -19,15 -44,31 -75,47 -30,15 -60,27 -89,35 -29,8 -69,12 -122,12 -97,0 -178,-33 -242,-98 -64,-66 -96,-148 -96,-248 0,-82 16,-148 49,-199 32,-51 79,-91 141,-120 62,-30 136,-51 222,-63 86,-12 179,-21 278,-27l0 -6c0,-61 -22,-103 -67,-126 -45,-23 -112,-35 -201,-35 -41,0 -88,7 -142,22 -54,15 -107,33 -158,56l-29 0 0 -267c34,-10 89,-21 165,-35 76,-13 152,-20 229,-20 190,0 328,31 414,95 87,63 130,160 130,290l0 751 -344 0 0 -117z"/>
  <polygon id="8" class="fil5" points="11973,10005 11651,11106 11286,11106 11092,10394 10897,11106 10532,11106 10213,10005 10575,10005 10743,10733 10953,10005 11256,10005 11453,10733 11619,10005 "/>
  <path id="9" class="fil5" d="M12454 11136c-81,0 -158,-9 -230,-26 -72,-17 -132,-38 -179,-62l0 -290 28 0c16,12 35,26 56,41 21,15 50,30 87,47 32,15 68,28 109,39 40,11 84,16 131,16 49,0 91,-7 128,-22 37,-15 56,-39 56,-72 0,-25 -8,-45 -25,-58 -17,-13 -50,-25 -99,-37 -26,-7 -59,-14 -99,-21 -40,-8 -75,-16 -106,-26 -86,-27 -152,-66 -195,-119 -44,-53 -65,-122 -65,-207 0,-49 11,-95 34,-139 23,-44 56,-82 100,-116 44,-33 98,-60 163,-79 64,-20 137,-29 218,-29 77,0 148,8 213,23 65,15 120,34 164,56l0 279 -27 0c-12,-9 -30,-21 -56,-37 -26,-15 -51,-29 -75,-40 -29,-13 -61,-24 -97,-33 -36,-8 -72,-13 -110,-13 -50,0 -92,8 -126,25 -35,17 -52,40 -52,68 0,25 8,45 25,59 17,14 54,28 111,42 29,7 63,14 102,21 38,7 75,16 111,28 79,25 139,63 181,112 41,50 61,115 61,197 0,52 -12,101 -36,147 -24,47 -59,86 -103,118 -47,35 -103,62 -166,80 -64,19 -140,28 -229,28z"/>
 </g>
</svg>
