<?xml version="1.0" encoding="UTF-8"?>
<!DOCTYPE svg PUBLIC "-//W3C//DTD SVG 1.1//EN" "http://www.w3.org/Graphics/SVG/1.1/DTD/svg11.dtd">
<!-- Creator: CorelDRAW 2017 -->
<svg xmlns="http://www.w3.org/2000/svg" xml:space="preserve" width="150mm" height="150mm" version="1.1" style="shape-rendering:geometricPrecision; text-rendering:geometricPrecision; image-rendering:optimizeQuality; fill-rule:evenodd; clip-rule:evenodd"
viewBox="0 0 15000 15000"
 xmlns:xlink="http://www.w3.org/1999/xlink">
 <defs>
  <style type="text/css">
   <![CDATA[
    .str3 {stroke:#FEFEFE;stroke-width:75}
    .str1 {stroke:#FEFEFE;stroke-width:20}
    .str0 {stroke:#373435;stroke-width:20}
    .str4 {stroke:black;stroke-width:20}
    .str2 {stroke:#FEFEFE;stroke-width:75;stroke-linecap:round}
    .fil2 {fill:none}
    .fil1 {fill:#FEFEFE}
    .fil3 {fill:black}
    .fil0 {fill:#030303}
   ]]>
  </style>
 </defs>
 <g id="Capa_x0020_1">
  <metadata id="CorelCorpID_0Corel-Layer"/>
  <g id="_2117694193968">
   <path class="fil0 str0" d="M7754 7710c3058,42 4946,4765 4880,5392 46,517 -254,1368 -1745,1300 -878,-181 -1881,-791 -2694,-849 -917,-65 -1689,452 -3597,824 -794,26 -1456,-435 -1485,-1233 -59,-1642 1585,-5223 4641,-5434z"/>
   <path class="fil1 str1" d="M11059 14407l-169 -4c-433,-100 -846,-246 -1247,-421 -5,-110 -69,-264 -186,-329 -99,-55 -240,-167 -226,-337 16,-203 115,-503 47,-609 -99,-100 -428,192 -609,305 -140,73 -544,205 -741,82 -39,-74 277,-252 394,-538 31,-62 75,102 116,92 121,-314 580,-492 579,-669 -5,-42 -150,-67 -451,39 -431,-7 -839,-193 -944,-822 -35,-488 586,-914 827,-1427 -2,344 -538,802 -683,1351 -29,196 150,473 304,602 148,99 342,135 518,115 38,-54 -101,-69 -69,-134 71,-80 310,17 466,-71 392,-466 494,-1037 91,-1796 -637,-808 -1368,-1097 -2156,-1069 -480,8 -841,194 -1045,620 -106,207 637,304 -319,621 33,114 -17,304 101,387l-187 211c28,175 251,421 603,505 378,17 546,146 739,285l-192 1c96,609 -419,1306 -558,2082 -28,204 27,355 90,512l-213 62c-258,-712 101,-1377 361,-2028 -304,-105 -546,-289 -458,-740 -419,-265 -702,-370 -777,-917 -22,-163 37,-401 8,-635 -52,-61 -30,-192 -7,-238 65,-184 251,-236 521,-226 324,-325 576,-760 1334,-725 445,-50 1017,109 1698,445 419,262 840,894 906,1224 62,470 82,1132 -232,1644 -10,91 40,234 118,328 596,677 1140,1339 1648,2220z"/>
   <path class="fil2 str2" d="M6646 9523c0,0 423,-371 585,167"/>
   <path class="fil2 str2" d="M6840 10641c0,0 282,-42 366,219"/>
   <path class="fil3" d="M5314 9898c83,5 92,89 127,155 -19,203 82,284 123,426l-175 134c-114,-384 -162,-258 -75,-715z"/>
   <path class="fil2 str3" d="M5372 10751c0,0 115,-334 303,-308 188,26 546,502 951,465 405,-37 361,-111 397,-158"/>
   <path class="fil0" d="M6069 11293c210,-20 270,45 386,163 25,81 53,219 -19,351 -118,22 -258,-28 -345,-150 -86,-143 -55,-311 -22,-364z"/>
   <path class="fil2 str0" d="M10778 14376c0,0 -1144,-1710 -1266,-1719"/>
   <ellipse class="fil3 str4" transform="matrix(2.67614 -0.643867 0.643867 2.67614 5235.79 3241.89)" rx="643" ry="960"/>
   <ellipse class="fil3 str4" transform="matrix(2.71377 0.460118 -0.460118 2.71377 9875.72 3216.82)" rx="643" ry="960"/>
   <ellipse class="fil3 str4" transform="matrix(2.54523 1.04789 -1.04789 2.54523 12986.4 6959.35)" rx="643" ry="960"/>
   <ellipse class="fil3 str4" transform="matrix(2.32342 -1.4758 1.4758 2.32342 2151.49 7222.72)" rx="643" ry="960"/>
  </g>
 </g>
</svg>
